<?xml version="1.0" encoding="UTF-8"?>
<svg width="95px" height="91px" viewBox="0 0 95 91" version="1.1" xmlns="http://www.w3.org/2000/svg" xmlns:xlink="http://www.w3.org/1999/xlink">
    <!-- Generator: Sketch 53.2 (72643) - https://sketchapp.com -->
    <title>icon</title>
    <desc>Created with Sketch.</desc>
    <g id="Designs" stroke="none" stroke-width="1" fill="none" fill-rule="evenodd">
        <g id="Home-Page-Sonobuoy" transform="translate(-1038.000000, -1567.000000)" fill="#FFFFFF">
            <g id="Use-Cases" transform="translate(243.000000, 1172.000000)">
                <g id="2" transform="translate(0.000000, 323.000000)">
                    <g id="icon" transform="translate(795.000000, 72.000000)">
                        <path d="M0,0.0004 L0,69.9994 L51.782,69.9994 L51.782,67.5004 L2.5,67.5004 L2.5,38.2064 L16.69,38.2064 L20.472,24.6304 L26.061,64.0594 L33.296,32.8744 L38.413,51.7114 L46.964,19.1224 L50.818,38.2064 L67.5,38.2064 L67.5,57.9474 L70,57.9474 L70,0.0004 L0,0.0004 Z M2.5,2.4994 L67.5,2.4994 L67.5,35.7074 L52.864,35.7074 L47.28,8.0644 L38.371,42.0204 L33.106,22.6344 L26.655,50.4364 L21.271,12.4504 L14.792,35.7074 L2.5,35.7074 L2.5,2.4994 Z" id="Fill-1"></path>
                        <path d="M54.555,90.9634 L94.521,90.9634 L94.521,60.9634 L54.555,60.9634 L54.555,90.9634 Z M57.055,63.4634 L92.021,63.4634 L92.021,88.4634 L57.055,88.4634 L57.055,72.7764 L87.845,72.7764 L87.845,70.2764 L57.055,70.2764 L57.055,63.4634 Z" id="Fill-2"></path>
                        <g id="Group-9" transform="translate(59.000000, 64.963400)">
                            <path d="M1.9229,3.0415 L1.9439,3.0415 C2.7219,3.0415 3.2049,2.5655 3.2049,1.7905 C3.2049,0.9965 2.6999,0.5415 1.9659,0.5415 C1.2299,0.5415 0.7049,1.0305 0.7049,1.8255 C0.7049,2.6005 1.2079,3.0415 1.9229,3.0415" id="Fill-3"></path>
                            <path d="M6.9229,3.0415 L6.9439,3.0415 C7.7219,3.0415 8.2049,2.5655 8.2049,1.7905 C8.2049,0.9965 7.6999,0.5415 6.9659,0.5415 C6.2299,0.5415 5.7049,1.0305 5.7049,1.8255 C5.7049,2.6005 6.2079,3.0415 6.9229,3.0415" id="Fill-5"></path>
                            <path d="M11.9229,3.0415 L11.9439,3.0415 C12.7219,3.0415 13.2049,2.5655 13.2049,1.7905 C13.2049,0.9965 12.6999,0.5415 11.9659,0.5415 C11.2299,0.5415 10.7049,1.0305 10.7049,1.8255 C10.7049,2.6005 11.2079,3.0415 11.9229,3.0415" id="Fill-7"></path>
                        </g>
                    </g>
                </g>
            </g>
        </g>
    </g>
</svg>