<?xml version="1.0" encoding="UTF-8"?>
<svg width="93px" height="45px" viewBox="0 0 93 45" version="1.1" xmlns="http://www.w3.org/2000/svg" xmlns:xlink="http://www.w3.org/1999/xlink">
    <!-- Generator: Sketch 53.2 (72643) - https://sketchapp.com -->
    <title>Group 3</title>
    <desc>Created with Sketch.</desc>
    <defs>
        <polygon id="path-1" points="0.0002 0 92.536 0 92.536 44.4678 0.0002 44.4678"></polygon>
    </defs>
    <g id="Designs" stroke="none" stroke-width="1" fill="none" fill-rule="evenodd">
        <g id="Home-Page-Sonobuoy" transform="translate(-314.000000, -1332.000000)">
            <g id="Use-Cases" transform="translate(243.000000, 1172.000000)">
                <g id="1" transform="translate(7.000000, 72.000000)">
                    <g id="Group-3" transform="translate(64.000000, 88.000000)">
                        <mask id="mask-2" fill="white">
                            <use xlink:href="#path-1"></use>
                        </mask>
                        <g id="Clip-2"></g>
                        <path d="M84.7102,25.169 C81.7732,25.169 79.3842,22.78 79.3842,19.843 C79.3842,16.907 81.7732,14.518 84.7102,14.518 C87.6472,14.518 90.0362,16.907 90.0362,19.843 C90.0362,22.78 87.6472,25.169 84.7102,25.169 M7.6332,27.134 C4.8032,27.134 2.5002,24.832 2.5002,22.001 C2.5002,19.17 4.8032,16.867 7.6332,16.867 C10.4642,16.867 12.7672,19.17 12.7672,22.001 C12.7672,24.832 10.4642,27.134 7.6332,27.134 M84.7102,12.018 C80.3882,12.018 76.8842,15.522 76.8842,19.843 C76.8842,19.991 76.8982,20.134 76.9062,20.279 C74.4762,21.728 72.9132,24.374 72.9132,27.252 L72.7912,36.328 C72.7912,39.438 70.2612,41.968 67.1502,41.968 C64.0412,41.968 61.5102,39.438 61.5102,36.326 L61.4672,8.14 C61.4672,3.728 57.6272,0 53.0832,0 C48.5382,0 44.6982,3.728 44.6982,8.14 L44.6982,36.328 C44.6982,39.49 42.3282,41.968 39.3022,41.968 C36.2082,41.968 33.7842,39.49 33.7842,36.334 L33.9302,8.14 C33.9302,3.652 30.2922,0 25.8202,0 C21.3402,0 17.6952,3.652 17.6952,8.155 L17.7722,14.665 C17.7722,16.747 16.6132,18.606 14.8692,19.582 C13.8562,16.553 11.0022,14.367 7.6332,14.367 C3.4182,14.367 0.0002,17.785 0.0002,22.001 C0.0002,26.217 3.4182,29.634 7.6332,29.634 C11.7892,29.634 15.1622,26.312 15.2582,22.179 C18.2352,20.937 20.2722,17.986 20.2722,14.65 L20.1952,8.14 C20.1952,5.03 22.7192,2.5 25.8202,2.5 C28.9142,2.5 31.4302,5.03 31.4302,8.134 L31.2842,36.328 C31.2842,40.892 34.8062,44.468 39.3022,44.468 C43.7302,44.468 47.1982,40.892 47.1982,36.328 L47.1982,8.14 C47.1982,5.083 49.8932,2.5 53.0832,2.5 C56.2732,2.5 58.9672,5.083 58.9672,8.142 L59.0102,36.328 C59.0102,40.816 62.6622,44.468 67.1502,44.468 C71.6392,44.468 75.2912,40.816 75.2912,36.344 L75.4132,27.269 C75.4132,25.548 76.2122,23.951 77.5032,22.898 C78.6932,25.702 81.4722,27.669 84.7102,27.669 C89.0322,27.669 92.5362,24.166 92.5362,19.843 C92.5362,15.522 89.0322,12.018 84.7102,12.018" id="Fill-1" fill="#FFFFFF" mask="url(#mask-2)"></path>
                    </g>
                </g>
            </g>
        </g>
    </g>
</svg>