<?xml version="1.0" encoding="UTF-8"?>
<svg width="94px" height="94px" viewBox="0 0 94 94" version="1.1" xmlns="http://www.w3.org/2000/svg" xmlns:xlink="http://www.w3.org/1999/xlink">
    <!-- Generator: Sketch 53.2 (72643) - https://sketchapp.com -->
    <title>icon</title>
    <desc>Created with Sketch.</desc>
    <defs>
        <polygon id="path-1" points="0.0001 0.519 93.5 0.519 93.5 93.9995 0.0001 93.9995"></polygon>
    </defs>
    <g id="Designs" stroke="none" stroke-width="1" fill="none" fill-rule="evenodd">
        <g id="Home-Page-Sonobuoy" transform="translate(-316.000000, -1810.000000)">
            <g id="Use-Cases" transform="translate(243.000000, 1172.000000)">
                <g id="3" transform="translate(7.000000, 572.000000)">
                    <g id="icon" transform="translate(66.000000, 65.000000)">
                        <g id="Group-3" transform="translate(0.000000, 0.481400)">
                            <mask id="mask-2" fill="white">
                                <use xlink:href="#path-1"></use>
                            </mask>
                            <g id="Clip-2"></g>
                            <path d="M35.8501,4.3525 L35.2361,1.9285 C38.5501,1.0895 41.9751,0.6155 45.4171,0.5185 L45.4881,3.0175 C42.2281,3.1085 38.9861,3.5585 35.8501,4.3525 L35.8501,4.3525 Z M59.9121,4.9895 C56.8201,4.0275 53.6061,3.4065 50.3611,3.1445 L50.5621,0.6525 C53.9911,0.9295 57.3871,1.5855 60.6561,2.6025 L59.9121,4.9895 Z M22.5251,10.2135 L21.1551,8.1225 C24.0301,6.2375 27.1141,4.6715 30.3231,3.4675 L31.2011,5.8085 C28.1651,6.9475 25.2461,8.4295 22.5251,10.2135 L22.5251,10.2135 Z M72.9101,11.5565 C70.2871,9.6305 67.4501,7.9955 64.4791,6.6945 L65.4821,4.4045 C68.6211,5.7785 71.6181,7.5065 74.3891,9.5405 L72.9101,11.5565 Z M11.8181,20.0835 L9.8461,18.5475 C11.9541,15.8415 14.3641,13.3615 17.0111,11.1775 L18.6021,13.1045 C16.0961,15.1735 13.8131,17.5215 11.8181,20.0835 L11.8181,20.0835 Z M83.0791,21.9795 C81.2231,19.3165 79.0681,16.8515 76.6741,14.6515 L78.3651,12.8105 C80.8931,15.1335 83.1691,17.7375 85.1301,20.5495 L83.0791,21.9795 Z M4.8831,32.8865 L2.5181,32.0745 C3.6311,28.8315 5.1081,25.7035 6.9101,22.7755 L9.0391,24.0865 C7.3341,26.8565 5.9351,29.8175 4.8831,32.8865 L4.8831,32.8865 Z M89.3191,35.1285 C88.4331,32.0085 87.1951,28.9775 85.6401,26.1225 L87.8351,24.9275 C89.4781,27.9445 90.7871,31.1475 91.7241,34.4455 L89.3191,35.1285 Z M2.5001,47.4345 L0.0001,47.4345 L0.0001,47.2595 C0.0001,43.8035 0.3771,40.3665 1.1201,37.0325 L3.5601,37.5765 C2.8571,40.7315 2.5001,43.9865 2.5001,47.2495 L2.5001,47.4345 Z M93.4351,49.7305 L90.9391,49.5995 C90.9791,48.8215 91.0001,48.0385 91.0001,47.2495 C90.9991,44.7775 90.7941,42.2985 90.3891,39.8815 L92.8551,39.4685 C93.2821,42.0215 93.4991,44.6395 93.5001,47.2495 C93.5001,48.0815 93.4781,48.9095 93.4351,49.7305 L93.4351,49.7305 Z M2.5791,62.6015 C1.4541,59.3645 0.6871,55.9915 0.3001,52.5765 L2.7841,52.2935 C3.1511,55.5265 3.8761,58.7185 4.9401,61.7805 L2.5791,62.6015 Z M90.1141,64.7515 L87.7951,63.8145 C89.0121,60.8055 89.8941,57.6525 90.4181,54.4445 L92.8861,54.8475 C92.3311,58.2385 91.3991,61.5705 90.1141,64.7515 L90.1141,64.7515 Z M9.9581,76.0955 C7.8361,73.3925 6.0121,70.4545 4.5381,67.3635 L6.7931,66.2875 C8.1891,69.2115 9.9151,71.9925 11.9251,74.5515 L9.9581,76.0955 Z M82.0781,77.8715 L80.1891,76.2325 C82.3211,73.7755 84.1821,71.0815 85.7231,68.2265 L87.9231,69.4135 C86.2961,72.4305 84.3291,75.2755 82.0781,77.8715 L82.0781,77.8715 Z M21.3081,86.4765 C18.4321,84.6075 15.7561,82.4165 13.3531,79.9635 L15.1401,78.2145 C17.4141,80.5375 19.9481,82.6115 22.6701,84.3805 L21.3081,86.4765 Z M70.2341,87.6825 L68.9761,85.5215 C71.7791,83.8905 74.4111,81.9435 76.7981,79.7335 L78.4961,81.5685 C75.9741,83.9025 73.1941,85.9595 70.2341,87.6825 L70.2341,87.6825 Z M35.4161,92.6165 C32.0871,91.7875 28.8431,90.5835 25.7731,89.0405 L26.8961,86.8075 C29.8011,88.2675 32.8711,89.4055 36.0201,90.1905 L35.4161,92.6165 Z M55.8451,93.1165 L55.3621,90.6635 C58.5491,90.0345 61.6701,89.0495 64.6391,87.7355 L65.6501,90.0215 C62.5131,91.4105 59.2141,92.4515 55.8451,93.1165 L55.8451,93.1165 Z M46.7671,93.9995 L46.7491,93.9995 C44.6521,93.9995 42.5401,93.8595 40.4741,93.5815 L40.8061,91.1045 C42.7631,91.3665 44.7631,91.4995 46.7501,91.4995 L46.7661,91.4995 C48.0201,91.4995 49.2881,91.4465 50.5361,91.3405 L50.7471,93.8315 C49.4301,93.9435 48.0901,93.9995 46.7671,93.9995 L46.7671,93.9995 Z" id="Fill-1" fill="#FFFFFF" mask="url(#mask-2)"></path>
                        </g>
                        <path d="M46.5122,36.7016 C40.9982,36.7016 36.5122,41.1876 36.5122,46.7016 C36.5122,52.2156 40.9982,56.7016 46.5122,56.7016 C52.0262,56.7016 56.5122,52.2156 56.5122,46.7016 C56.5122,41.1876 52.0262,36.7016 46.5122,36.7016 M46.5122,59.2016 C39.6192,59.2016 34.0122,53.5946 34.0122,46.7016 C34.0122,39.8086 39.6192,34.2016 46.5122,34.2016 C53.4052,34.2016 59.0122,39.8086 59.0122,46.7016 C59.0122,53.5946 53.4052,59.2016 46.5122,59.2016" id="Fill-4" fill="#FFFFFF"></path>
                        <path d="M46.5122,18.3754 C44.4442,18.3754 42.7622,16.6934 42.7622,14.6254 C42.7622,12.5574 44.4442,10.8754 46.5122,10.8754 C48.5802,10.8754 50.2622,12.5574 50.2622,14.6254 C50.2622,16.6934 48.5802,18.3754 46.5122,18.3754 M52.7622,14.6254 C52.7622,11.1794 49.9582,8.3754 46.5122,8.3754 C43.0662,8.3754 40.2622,11.1794 40.2622,14.6254 C40.2622,17.6434 42.4132,20.1684 45.2622,20.7494 L45.2622,31.0524 L47.7622,31.0524 L47.7622,20.7494 C50.6112,20.1684 52.7622,17.6434 52.7622,14.6254" id="Fill-6" fill="#FFFFFF"></path>
                        <path d="M29.396,74.9223 C28.807,75.7333 27.938,76.2653 26.949,76.4223 C25.96,76.5813 24.968,76.3413 24.158,75.7523 C23.348,75.1633 22.815,74.2943 22.658,73.3043 C22.501,72.3153 22.739,71.3243 23.328,70.5143 C23.917,69.7033 24.786,69.1713 25.775,69.0143 C25.974,68.9833 26.173,68.9673 26.37,68.9673 C27.156,68.9673 27.918,69.2143 28.566,69.6843 C30.239,70.8993 30.611,73.2493 29.396,74.9223 L29.396,74.9223 Z M35.006,58.6933 L28.951,67.0283 C27.844,66.5223 26.614,66.3513 25.384,66.5453 C23.735,66.8063 22.287,67.6933 21.306,69.0443 C20.324,70.3953 19.928,72.0473 20.189,73.6953 C20.45,75.3443 21.338,76.7933 22.688,77.7743 C23.768,78.5583 25.04,78.9693 26.349,78.9693 C26.678,78.9693 27.009,78.9433 27.34,78.8913 C28.989,78.6303 30.438,77.7423 31.418,76.3923 C33.192,73.9493 32.936,70.6433 30.973,68.4983 L37.029,60.1633 L35.006,58.6933 Z" id="Fill-8" fill="#FFFFFF"></path>
                        <path d="M70.3657,73.3046 C70.2087,74.2936 69.6767,75.1626 68.8657,75.7516 C68.0557,76.3406 67.0617,76.5786 66.0747,76.4216 C65.0857,76.2646 64.2167,75.7326 63.6277,74.9226 C62.4127,73.2496 62.7847,70.8996 64.4577,69.6836 C65.1057,69.2136 65.8677,68.9676 66.6537,68.9676 C66.8507,68.9676 67.0497,68.9826 67.2487,69.0136 C68.2377,69.1706 69.1067,69.7036 69.6957,70.5136 C70.2847,71.3246 70.5227,72.3156 70.3657,73.3046 M71.7187,69.0446 C70.7377,67.6936 69.2887,66.8056 67.6397,66.5446 C66.4097,66.3506 65.1797,66.5216 64.0737,67.0276 L58.0177,58.6936 L55.9947,60.1626 L62.0517,68.4986 C60.0877,70.6426 59.8317,73.9496 61.6057,76.3916 C62.5867,77.7426 64.0347,78.6296 65.6837,78.8906 C66.0147,78.9436 66.3457,78.9696 66.6747,78.9696 C67.9837,78.9696 69.2557,78.5586 70.3357,77.7746 C71.6857,76.7936 72.5737,75.3446 72.8347,73.6956 C73.0957,72.0466 72.6997,70.3946 71.7187,69.0446" id="Fill-10" fill="#FFFFFF"></path>
                        <path d="M19.4707,37.559 C19.1617,38.512 18.4997,39.287 17.6067,39.741 C16.7137,40.197 15.6977,40.276 14.7457,39.966 C12.7797,39.327 11.6997,37.207 12.3387,35.241 C12.9767,33.274 15.0967,32.195 17.0637,32.833 C19.0297,33.473 20.1097,35.592 19.4707,37.559 M17.8357,30.455 C14.5567,29.391 11.0247,31.191 9.9607,34.469 C8.8957,37.746 10.6957,41.279 13.9727,42.344 C14.6087,42.551 15.2617,42.653 15.9107,42.653 C16.8837,42.653 17.8497,42.423 18.7417,41.969 C19.8507,41.404 20.7447,40.541 21.3417,39.481 L31.1407,42.665 L31.9137,40.287 L22.1157,37.103 C22.4437,34.215 20.7067,31.389 17.8357,30.455" id="Fill-12" fill="#FFFFFF"></path>
                        <path d="M78.2783,39.9663 C77.3273,40.2763 76.3103,40.1963 75.4173,39.7413 C74.5243,39.2863 73.8623,38.5113 73.5533,37.5593 C72.9143,35.5923 73.9943,33.4723 75.9603,32.8333 C77.9283,32.1953 80.0473,33.2743 80.6853,35.2413 C81.3243,37.2073 80.2443,39.3273 78.2783,39.9663 M83.0633,34.4683 C81.9993,31.1923 78.4663,29.3913 75.1883,30.4553 C72.3173,31.3883 70.5803,34.2153 70.9083,37.1033 L61.1103,40.2873 L61.8823,42.6653 L71.6823,39.4813 C72.2793,40.5413 73.1733,41.4033 74.2813,41.9683 C75.1743,42.4233 76.1393,42.6533 77.1123,42.6533 C77.7623,42.6533 78.4153,42.5503 79.0503,42.3443 C82.3283,41.2783 84.1283,37.7463 83.0633,34.4683" id="Fill-14" fill="#FFFFFF"></path>
                    </g>
                </g>
            </g>
        </g>
    </g>
</svg>