<?xml version="1.0" encoding="UTF-8"?>
<svg width="58px" height="60px" viewBox="0 0 58 60" version="1.1" xmlns="http://www.w3.org/2000/svg" xmlns:xlink="http://www.w3.org/1999/xlink">
    <!-- Generator: Sketch 53.2 (72643) - https://sketchapp.com -->
    <title>icon</title>
    <desc>Created with Sketch.</desc>
    <defs>
        <polygon id="path-1" points="0.45872093 0.268578947 29.6860465 0.268578947 29.6860465 26.4566605 0.45872093 26.4566605"></polygon>
    </defs>
    <g id="Designs" stroke="none" stroke-width="1" fill="none" fill-rule="evenodd">
        <g id="Home-Page-Sonobuoy-Rd2" transform="translate(-691.000000, -557.000000)">
            <g id="Callout-2" transform="translate(569.000000, 512.000000)">
                <g id="icon" transform="translate(122.000000, 45.000000)">
                    <path d="M25,40.2857143 L23.821731,38.9558137 L16.1965272,46.7951144 L16.4208596,47.3504969 C17.6096115,50.294815 16.962472,53.6529757 14.7715625,55.9054006 C12.9398643,57.7885283 10.3401248,58.5637648 7.85988941,58.0464615 L11.4093725,54.3965992 L10.1500363,49.5648425 L5.45023837,48.2701473 L1.90005645,51.9192911 C1.3961822,49.3708538 2.15094529,46.6974015 3.98264348,44.8135553 C6.17425185,42.5611304 9.43860219,41.8965393 12.3046054,43.1179499 L12.8441212,43.348581 L24.5925677,31.270267 L23.3569926,30 L12.4206152,41.2434439 C9.04235157,40.0493354 5.30068346,40.9186924 2.74776721,43.5440067 C0.0900227498,46.2756556 -0.723444132,50.3601964 0.675662996,53.9497066 L1.16765671,55.2127889 L5.97228284,50.2732607 L8.72367383,51.0312537 L9.46096554,53.859897 L4.65633942,58.7994252 L5.884926,59.3059514 C7.01916719,59.7729613 8.20442478,60 9.37919954,60 C11.8196002,60 14.2124787,59.0199976 16.0071376,57.1749491 C18.559355,54.5510717 19.4077646,50.7057837 18.2441715,47.2305113 L25,40.2857143 Z" id="Fill-1" fill="#0091DA"></path>
                    <g id="Group-5" transform="translate(28.000000, 0.000000)">
                        <mask id="mask-2" fill="white">
                            <use xlink:href="#path-1"></use>
                        </mask>
                        <g id="Clip-4"></g>
                        <path d="M29.0117442,6.25213421 L28.5198837,5.00231842 L23.7233721,9.88789737 L20.9766279,9.13829211 L20.2412791,6.34095 L25.037093,1.45608158 L23.8105814,0.955160526 C20.3256977,-0.468023684 16.3601163,0.36045 13.7061628,3.06187105 C11.1582558,5.65671316 10.3112791,9.45945 11.4722093,12.8969763 L0.45872093,24.1140553 L1.6922093,25.3695553 L13.5163953,13.3275553 L13.2931395,12.7790289 C12.1063953,9.86658158 12.7524419,6.54558158 14.9396512,4.31808158 C16.7689535,2.45508158 19.365,1.68842368 21.8396512,2.20071316 L18.2961628,5.80947632 L19.5526744,10.5884763 L24.2445349,11.8688447 L27.7894186,8.25937105 C28.2924419,10.7803184 27.5389535,13.4241868 25.7103488,15.2864763 C23.5224419,17.5146868 20.2615116,18.1719237 17.4024419,16.9640289 L16.8638372,16.73595 L8.61034884,25.1414763 L9.78593023,26.4566605 L17.2859302,18.8177921 C20.6605814,19.9993974 24.3952326,19.1382395 26.9431395,16.5426868 C29.5963953,13.8405553 30.4084884,9.80121316 29.0117442,6.25213421" id="Fill-3" fill="#0091DA" mask="url(#mask-2)"></path>
                    </g>
                    <path d="M56.3543123,48.3829322 L40.7609891,32.63495 L37.5583223,30.9164384 C37.5158337,30.2179193 37.2295579,29.558793 36.729446,29.0537208 L35.0305978,27.338023 C33.9335556,26.2293965 32.1734123,26.2019622 31.1077141,27.2782303 L29.2695589,29.1339134 L10.1949551,9.87012218 L10.1949551,5.9547575 L4.09261424,2 L1,5.12328767 L4.03898107,10.3850426 C4.28137516,10.8049981 4.81422423,10.9463902 5.23005547,10.701592 C5.64519018,10.4567938 5.78519366,9.91795631 5.54279957,9.49870418 L3.18085027,5.4088856 L4.33222219,4.2453906 L8.45361825,6.91566087 L8.45361825,10.5981859 L28.0387821,30.3776009 L25.3787159,33.0640504 C24.3137143,34.1389115 24.3401826,35.9165124 25.4379213,37.0251388 L26.884624,38.4861903 L28.1160974,37.2432062 L26.6693948,35.7814513 C26.4611309,35.5718252 26.3434165,35.2981859 26.3371477,35.0125879 C26.3308789,34.7410589 26.4276972,34.4906331 26.6094928,34.3070344 L32.338491,28.5212144 C32.7250678,28.1308034 33.3798104,28.1582377 33.7991244,28.5817105 L35.4986691,30.2974084 C35.7062365,30.5077379 35.8246474,30.7806738 35.8309162,31.0669752 C35.8364885,31.3378008 35.7396701,31.5882266 35.5578746,31.7718252 L35.5850394,31.7992595 L29.5969303,37.8467605 C29.2570213,38.1900407 29.2570213,38.7464643 29.5969303,39.090448 C29.9375358,39.4337282 30.4884947,39.4337282 30.8284037,39.090448 L37.1612975,32.6947427 L39.7140974,34.0643465 L54.7745715,49.2748982 L55.0803503,50.5664198 L48.6151148,57.0957793 L47.4491156,56.8678638 L31.6544939,40.915883 C31.3138884,40.5726027 30.7629294,40.5726027 30.4230205,40.915883 C30.0831115,41.2598667 30.0831115,41.8162903 30.4230205,42.1595705 L46.5951641,58.492114 L49.1918456,59 L57,51.1151055 L56.3543123,48.3829322 Z" id="Fill-6" fill="#0091DA"></path>
                </g>
            </g>
        </g>
    </g>
</svg>