<?xml version="1.0" encoding="UTF-8"?>
<svg width="27px" height="31px" viewBox="0 0 27 31" version="1.1" xmlns="http://www.w3.org/2000/svg" xmlns:xlink="http://www.w3.org/1999/xlink">
    <!-- Generator: Sketch 48.2 (47327) - http://www.bohemiancoding.com/sketch -->
    <title>Group</title>
    <desc>Created with Sketch.</desc>
    <defs>
        <rect id="path-1" x="0" y="0" width="33" height="33"></rect>
    </defs>
    <g id="Sonobuoy" stroke="none" stroke-width="1" fill="none" fill-rule="evenodd">
        <g id="Asset-1" transform="translate(-69.000000, -2.000000)">
            <g id="Group" transform="translate(63.000000, 0.000000)">
                <mask id="mask-2" fill="white">
                    <use xlink:href="#path-1"></use>
                </mask>
                <g id="Mask" fill-rule="nonzero"></g>
                <g mask="url(#mask-2)" fill="#FFFFFF" fill-rule="nonzero" id="Shape">
                    <g transform="translate(6.682500, 2.433750)">
                        <path d="M27.062475,32.3173125 L19.4926875,32.3173125 C19.3232217,32.3172425 19.1630236,32.2399526 19.0575,32.10735 L14.33685,26.1892125 C14.2319609,26.0560409 14.1931238,25.8824875 14.23125,25.7173125 L15.9159,18.337275 C15.9535401,18.1718354 16.0645493,18.0325803 16.2174375,17.9590125 L23.0377125,14.6746875 C23.1905458,14.6008347 23.3687417,14.6008347 23.521575,14.6746875 L30.34185,17.9590125 C30.4945452,18.0328222 30.6054686,18.1719697 30.6433875,18.337275 L32.327625,25.7173125 C32.3645224,25.883367 32.3235004,26.0571789 32.21625,26.1892125 L27.4984875,32.10735 C27.3926675,32.2400333 27.2321887,32.3173121 27.062475,32.3173125 Z M19.761225,31.2035625 L26.7939375,31.2035625 L31.1788125,25.7049375 L29.6137875,18.8475375 L23.277375,15.7950375 L16.941375,18.8475375 L15.37635,25.7037 L19.761225,31.2035625 Z"></path>
                        <path d="M28.6906125,35.5917375 L17.8641375,35.5917375 C17.7270913,35.5916174 17.5975677,35.5290574 17.512275,35.4217875 L10.7617125,26.9572875 C10.6763613,26.8501899 10.6444727,26.710032 10.6750875,26.57655 L13.0840875,16.0215 C13.1146495,15.887946 13.2043848,15.7755871 13.327875,15.71625 L23.0822625,11.0182875 C23.2057011,10.9588891 23.3494614,10.9588891 23.4729,11.0182875 L33.2272875,15.71625 C33.350798,15.7757707 33.4405144,15.8882577 33.471075,16.0219125 L35.880075,26.5769625 C35.9105753,26.7105073 35.8785333,26.8506722 35.7930375,26.9577 L29.0428875,35.4217875 C28.9575047,35.5291706 28.8278034,35.5917431 28.6906125,35.5917375 Z M18.0811125,34.69125 L28.47405,34.69125 L34.9536,26.565 L32.641125,16.433175 L23.277375,11.9241375 L13.913625,16.433175 L11.6015625,26.565 L18.0811125,34.69125 Z"></path>
                        <path d="M30.31875,38.86575 L16.236,38.86575 C16.1314569,38.8656196 16.0326452,38.8179592 15.9674625,38.736225 L7.1869875,27.725775 C7.1223585,27.6445036 7.09794674,27.5383655 7.120575,27.437025 L10.255575,13.7069625 C10.2787425,13.605067 10.3470707,13.5192772 10.4412,13.4739 L23.1297,7.3635375 C23.2237892,7.318158 23.3334358,7.318158 23.427525,7.3635375 L36.116025,13.4739 C36.2101543,13.5192772 36.2784825,13.605067 36.30165,13.7069625 L39.43665,27.437025 C39.4592783,27.5383655 39.4348665,27.6445036 39.3702375,27.725775 L30.5872875,38.736225 C30.5221822,38.8180561 30.4233207,38.8657404 30.31875,38.86575 Z M16.401,38.17935 L30.15375,38.17935 L38.7283875,27.427125 L35.66805,14.020875 L23.277375,8.052 L10.8867,14.019225 L7.8263625,27.425475 L16.401,38.17935 Z"></path>
                        <path d="M31.9473,42.1397625 L14.60745,42.1397625 C14.5356025,42.1397942 14.4676836,42.1069744 14.4230625,42.0506625 L3.61185,28.49385 C3.56704616,28.4377134 3.55019818,28.3642501 3.5660625,28.2942 L7.425,11.389125 C7.44097746,11.3190611 7.48806623,11.2601242 7.552875,11.229075 L23.175075,3.7054875 C23.240227,3.67403183 23.316173,3.67403183 23.381325,3.7054875 L39.00435,11.229075 C39.0690395,11.2601733 39.1159813,11.3191164 39.1318125,11.389125 L42.9903375,28.2942 C43.0063163,28.3641875 42.9896217,28.4376439 42.9449625,28.49385 L32.13375,42.0506625 C32.0886019,42.107446 32.0198425,42.1403044 31.9473,42.1397625 Z M14.7213,41.6678625 L31.8338625,41.6678625 L42.5035875,28.288425 L38.6953875,11.6048625 L23.277375,4.1798625 L7.8593625,11.6048625 L4.051575,28.288425 L14.7213,41.6678625 Z"></path>
                        <path d="M33.5775,45.413775 L12.9793125,45.413775 C12.9400712,45.4138529 12.9029668,45.3959089 12.8786625,45.3651 L0.0367125,29.2623375 C0.0124334878,29.231641 0.00333609351,29.1916125 0.0119625,29.1534375 L4.59525,9.075 C4.60396884,9.03698585 4.62945535,9.004976 4.66455,8.9879625 L23.22375,0.0490875 C23.2590946,0.0321800363 23.3001929,0.0321800363 23.3355375,0.0490875 L41.8922625,8.9859 C41.9275926,9.00271863 41.9532779,9.03478722 41.961975,9.0729375 L46.5452625,29.1534375 C46.5538889,29.1916125 46.5447915,29.231641 46.5205125,29.2623375 L33.6765,45.3651 C33.6525556,45.3954573 33.6161616,45.413351 33.5775,45.413775 Z M13.0428375,45.156375 L33.513975,45.156375 L46.278375,29.151375 L41.722725,9.1909125 L23.277375,0.3081375 L4.832025,9.1909125 L0.2767875,29.1501375 L13.0428375,45.156375 Z"></path>
                    </g>
                </g>
            </g>
        </g>
    </g>
</svg>