<?xml version="1.0" encoding="UTF-8"?>
<svg width="1440px" height="500px" viewBox="0 0 1440 500" version="1.1" xmlns="http://www.w3.org/2000/svg" xmlns:xlink="http://www.w3.org/1999/xlink">
    <!-- Generator: Sketch 53.2 (72643) - https://sketchapp.com -->
    <title>Hero revised</title>
    <desc>Created with Sketch.</desc>
    <defs>
        <rect id="path-1" x="0" y="0" width="1440" height="500"></rect>
        <path d="M0,37.6289062 C104.059896,12.5429688 191.432292,1.51500991e-15 262.117188,0 C368.144531,0 486.871094,49.359375 588.9375,49.359375 C691.003906,49.359375 843.800781,9.70703125 1057.55859,9.70703125 C1271.31641,9.70703125 1418.625,49.359375 1479.54297,49.359375 C1520.15495,49.359375 1579.5599,36.1419271 1657.75781,9.70703125 L1590.83594,433.429688 L82.6640625,433.429688 L34.875,193.375 L19.328125,49.359375 L0,37.6289062 Z" id="path-3"></path>
    </defs>
    <g id="Designs" stroke="none" stroke-width="1" fill="none" fill-rule="evenodd">
        <g id="Home-Page-Sonobuoy" transform="translate(0.000000, -80.000000)">
            <g id="Hero-revised" transform="translate(0.000000, 80.000000)">
                <mask id="mask-2" fill="white">
                    <use xlink:href="#path-1"></use>
                </mask>
                <use id="Mask" fill="#78BE20" xlink:href="#path-1"></use>
                <g id="sonar" mask="url(#mask-2)">
                    <g transform="translate(-103.000000, 66.000000)">
                        <mask id="mask-4" fill="white">
                            <use xlink:href="#path-3"></use>
                        </mask>
                        <use id="Mask" stroke="none" fill="#0095D3" fill-rule="evenodd" xlink:href="#path-3"></use>
                        <g id="Group-7" stroke="none" stroke-width="1" fill="none" fill-rule="evenodd" mask="url(#mask-4)">
                            <g transform="translate(1044.000000, -52.000000)" stroke="#00C1D5">
                                <polygon id="Stroke-1" stroke-width="21.083" points="364.5357 266.0507 295.4157 210.1057 212.4057 241.9917 198.5147 329.8237 267.6357 385.7697 350.6447 353.8837"></polygon>
                                <polygon id="Stroke-2" stroke-width="17.477" points="419.0279 245.1191 304.5349 152.4471 167.0319 205.2661 144.0229 350.7571 258.5159 443.4281 396.0189 390.6091"></polygon>
                                <polygon id="Stroke-3" stroke-width="11.252" points="472.7788 224.4716 313.5288 95.5746 122.2748 169.0396 90.2718 371.4036 249.5218 500.3006 440.7758 426.8346"></polygon>
                                <polygon id="Stroke-4" stroke-width="6.325" points="523.3023 205.0644 321.9833 42.1164 80.2063 134.9904 39.7493 390.8114 241.0683 553.7584 482.8443 460.8854"></polygon>
                                <polygon id="Stroke-5" stroke-width="2.984" points="562.4429 190.0292 328.5329 0.7022 47.6159 108.6102 0.6079 405.8462 234.5179 595.1742 515.4359 487.2642"></polygon>
                            </g>
                        </g>
                    </g>
                </g>
                <g id="Group-4" mask="url(#mask-2)">
                    <g transform="translate(1079.000000, 209.000000)">
                        <polyline id="Line-2" stroke="#1D428A" stroke-width="3" fill="none" stroke-linecap="square" points="304.533203 206.621094 155.59082 147.105372 6.6484375 206.621094"></polyline>
                        <polyline id="Line-3" stroke="#1D428A" stroke-width="3" fill="none" stroke-linecap="square" points="66.8867188 246.5 155.336082 148.730126 245.53125 249.199219"></polyline>
                        <polygon id="Path-6" stroke="#1D428A" stroke-width="1" fill="none" points="43.2128906 210.408203 81.6933594 244.074219 225.927734 244.074219 266.615234 210.408203 157.427734 189.535156"></polygon>
                        <polyline id="Line-4" stroke="#1D428A" stroke-width="6" fill="none" stroke-linecap="square" points="0.5 207.5 157.5 220.5 311.765625 207.5"></polyline>
                        <polyline id="Line-5" stroke="#1D428A" stroke-width="6" fill="none" stroke-linecap="square" points="60.5 250.5 155.207679 221.132044 250.664062 250.5"></polyline>
                        <path d="M155.5,105.765625 L155.5,220.5" id="Line-6" stroke="#1D428A" stroke-width="3" fill="none" stroke-linecap="square"></path>
                        <rect id="Rectangle-4" stroke="none" fill="#1D428A" fill-rule="evenodd" x="144" y="107" width="23" height="31" rx="10"></rect>
                        <rect id="Rectangle-4-Copy-2" stroke="none" fill="#1D428A" fill-rule="evenodd" x="144" y="45" width="23" height="55" rx="2"></rect>
                        <rect id="Rectangle-4-Copy-4" stroke="none" fill="#1D428A" fill-rule="evenodd" x="144" y="103" width="23" height="20" rx="2"></rect>
                        <rect id="Rectangle-4-Copy-3" stroke="none" fill="#1D428A" fill-rule="evenodd" x="144" y="0" width="23" height="42" rx="2"></rect>
                    </g>
                </g>
                <path d="" id="Path-3" stroke="#979797" mask="url(#mask-2)"></path>
            </g>
        </g>
    </g>
</svg>